<svg width="74" height="74" viewBox="0 0 74 74" fill="none" xmlns="http://www.w3.org/2000/svg">
<rect x="0.5" y="-0.5" width="73" height="73" rx="9.5" transform="matrix(1 0 0 -1 0 73)" fill="white" stroke="black"/>
<g clip-path="url(#clip0_50_419)">
<path d="M36.9999 16.7752C43.5905 16.7752 44.371 16.8041 46.9629 16.9197C49.3718 17.0257 50.6726 17.4304 51.5398 17.7676C52.6864 18.2109 53.515 18.7504 54.3726 19.608C55.2398 20.4752 55.7697 21.2942 56.2129 22.4408C56.5502 23.308 56.9549 24.6184 57.0609 27.0176C57.1765 29.6192 57.2054 30.3997 57.2054 36.9807C57.2054 43.5713 57.1765 44.3517 57.0609 46.9437C56.9549 49.3525 56.5502 50.6533 56.2129 51.5205C55.7697 52.6671 55.2301 53.4958 54.3726 54.3533C53.5054 55.2205 52.6864 55.7504 51.5398 56.1937C50.6726 56.5309 49.3622 56.9356 46.9629 57.0416C44.3614 57.1572 43.5809 57.1861 36.9999 57.1861C30.4093 57.1861 29.6288 57.1572 27.0369 57.0416C24.628 56.9356 23.3273 56.5309 22.4601 56.1937C21.3135 55.7504 20.4848 55.2109 19.6273 54.3533C18.7601 53.4861 18.2301 52.6671 17.7869 51.5205C17.4497 50.6533 17.045 49.3429 16.939 46.9437C16.8234 44.3421 16.7945 43.5616 16.7945 36.9807C16.7945 30.39 16.8234 29.6096 16.939 27.0176C17.045 24.6088 17.4497 23.308 17.7869 22.4408C18.2301 21.2942 18.7697 20.4655 19.6273 19.608C20.4945 18.7408 21.3135 18.2109 22.4601 17.7676C23.3273 17.4304 24.6377 17.0257 27.0369 16.9197C29.6288 16.8041 30.4093 16.7752 36.9999 16.7752ZM36.9999 12.3333C30.3033 12.3333 29.465 12.3622 26.8346 12.4778C24.2137 12.5934 22.4119 13.0174 20.851 13.6244C19.2226 14.2603 17.8447 15.0986 16.4765 16.4765C15.0986 17.8447 14.2603 19.2226 13.6244 20.8413C13.0174 22.4119 12.5934 24.2041 12.4778 26.8249C12.3622 29.465 12.3333 30.3033 12.3333 36.9999C12.3333 43.6965 12.3622 44.5348 12.4778 47.1653C12.5934 49.7861 13.0174 51.5879 13.6244 53.1489C14.2603 54.7773 15.0986 56.1551 16.4765 57.5234C17.8447 58.8916 19.2226 59.7395 20.8413 60.3658C22.4119 60.9728 24.2041 61.3968 26.8249 61.5124C29.4554 61.628 30.2937 61.657 36.9903 61.657C43.6869 61.657 44.5252 61.628 47.1557 61.5124C49.7765 61.3968 51.5783 60.9728 53.1392 60.3658C54.758 59.7395 56.1359 58.8916 57.5041 57.5234C58.8723 56.1551 59.7202 54.7773 60.3465 53.1585C60.9536 51.5879 61.3775 49.7958 61.4932 47.1749C61.6088 44.5445 61.6377 43.7062 61.6377 37.0096C61.6377 30.3129 61.6088 29.4747 61.4932 26.8442C61.3775 24.2234 60.9536 22.4215 60.3465 20.8606C59.7395 19.2226 58.9012 17.8447 57.5234 16.4765C56.1551 15.1083 54.7773 14.2603 53.1585 13.634C51.5879 13.027 49.7958 12.603 47.1749 12.4874C44.5348 12.3622 43.6965 12.3333 36.9999 12.3333Z" fill="black"/>
<path d="M36.9999 24.3293C30.0046 24.3293 24.3293 30.0046 24.3293 36.9999C24.3293 43.9952 30.0046 49.6705 36.9999 49.6705C43.9952 49.6705 49.6705 43.9952 49.6705 36.9999C49.6705 30.0046 43.9952 24.3293 36.9999 24.3293ZM36.9999 45.2189C32.4616 45.2189 28.7809 41.5382 28.7809 36.9999C28.7809 32.4616 32.4616 28.7809 36.9999 28.7809C41.5382 28.7809 45.2189 32.4616 45.2189 36.9999C45.2189 41.5382 41.5382 45.2189 36.9999 45.2189Z" fill="black"/>
<path d="M53.1296 23.8284C53.1296 25.4665 51.7999 26.7865 50.1715 26.7865C48.5335 26.7865 47.2135 25.4568 47.2135 23.8284C47.2135 22.1904 48.5432 20.8704 50.1715 20.8704C51.7999 20.8704 53.1296 22.2001 53.1296 23.8284Z" fill="black"/>
</g>
<defs>
<clipPath id="clip0_50_419">
<rect width="49.3333" height="49.3333" fill="white" transform="translate(12.3333 12.3333)"/>
</clipPath>
</defs>
</svg>
