<svg width="74" height="74" viewBox="0 0 74 74" fill="none" xmlns="http://www.w3.org/2000/svg">
<rect x="0.5" y="-0.5" width="73" height="73" rx="9.5" transform="matrix(1 0 0 -1 0 73)" fill="white" stroke="black"/>
<path d="M12.3335 61.6666L15.8012 48.9982C13.6614 45.29 12.537 41.0864 12.5391 36.7759C12.5452 23.2996 23.5116 12.3333 36.9857 12.3333C43.5244 12.3353 49.6623 14.8821 54.2791 19.503C58.8938 24.1239 61.4344 30.2659 61.4324 36.7985C61.4262 50.2768 50.4599 61.2431 36.9857 61.2431C32.8952 61.2411 28.8642 60.2154 25.2937 58.2667L12.3335 61.6666ZM25.894 53.8411C29.3391 55.8864 32.628 57.1115 36.9775 57.1135C48.1761 57.1135 57.2987 47.9992 57.3048 36.7944C57.309 25.5669 48.2296 16.4649 36.9939 16.4608C25.7871 16.4608 16.6707 25.5751 16.6666 36.7779C16.6645 41.3515 18.0048 44.7761 20.2556 48.3589L18.2021 55.8576L25.894 53.8411ZM49.3005 42.6095C49.1484 42.3546 48.7414 42.2025 48.1289 41.8963C47.5184 41.59 44.5152 40.112 43.954 39.9085C43.3949 39.705 42.9879 39.6023 42.5789 40.2148C42.1719 40.8253 41.0002 42.2025 40.6446 42.6095C40.289 43.0165 39.9313 43.0679 39.3208 42.7616C38.7103 42.4554 36.7411 41.812 34.4081 39.7297C32.593 38.1099 31.3658 36.1099 31.0102 35.4973C30.6546 34.8868 30.9732 34.5559 31.2775 34.2516C31.5529 33.9783 31.888 33.5384 32.1942 33.1807C32.5046 32.8271 32.6053 32.5723 32.8109 32.1632C33.0144 31.7562 32.9137 31.3985 32.7595 31.0923C32.6053 30.788 31.3843 27.7808 30.8766 26.5577C30.3792 25.3675 29.8756 25.5279 29.5015 25.5094L28.3298 25.4888C27.9228 25.4888 27.2609 25.6409 26.7018 26.2535C26.1427 26.866 24.564 28.3419 24.564 31.3492C24.564 34.3565 26.7532 37.261 27.0574 37.668C27.3637 38.075 31.3638 44.2458 37.4914 46.8913C38.9488 47.5203 40.0875 47.8964 40.9735 48.178C42.437 48.6426 43.769 48.5768 44.8215 48.4206C45.9952 48.2459 48.4351 46.9426 48.9449 45.5161C49.4547 44.0875 49.4547 42.8644 49.3005 42.6095Z" fill="black"/>
</svg>
